<?xml version="1.0" encoding="UTF-8" standalone="no"?>
<svg width="1212px" height="1365px" viewBox="0 0 1212 1365" version="1.1" xmlns="http://www.w3.org/2000/svg" xmlns:xlink="http://www.w3.org/1999/xlink" xmlns:sketch="http://www.bohemiancoding.com/sketch/ns">
    <!-- Generator: Sketch 3.3.2 (12043) - http://www.bohemiancoding.com/sketch -->
    <title>Slice 1</title>
    <desc>Created with Sketch.</desc>
    <defs></defs>
    <g id="Page-1" stroke="none" stroke-width="1" fill="none" fill-rule="evenodd" sketch:type="MSPage">
        <g id="1_Primary_logo_on_transparent" sketch:type="MSLayerGroup" transform="translate(-1.000000, -1.000000)">
            <g id="Group" transform="translate(0.790698, 0.186047)" sketch:type="MSShapeGroup">
                <g transform="translate(0.153561, 0.630653)">
                    <g transform="translate(0.461507, 0.665713)">
                        <g>
                            <path d="M466.990842,339.271834 C292.525147,204.487337 192.17488,0.545556298 192.17488,0.545556298 C192.17488,0.545556298 187.484166,283.774852 86.3476556,472.114793 C-14.7193229,660.417293 -56.384848,1003.385 133.966163,1187.71885 C238.108581,1288.64676 329.200437,1338.45819 390.345531,1362.92265 C413.504931,1372.17036 412.322892,1077.58066 373.353057,811.402673 C327.167972,496.53646 239.483169,200.786112 239.483169,200.786112 C239.483169,200.786112 341.502197,494.755379 413.151924,806.225236 C473.451941,1068.60572 503.82659,1358.3496 516.465311,1345.91948 C570.363064,1292.93633 661.085867,1185.77731 726.697035,1015.28027 C825.779686,757.595846 641.424446,474.115166 466.990842,339.271834 L466.990842,339.271834 Z" id="kcs" fill="#3D334C"></path>
                            <path d="M1192.38282,711.180772 C1147.47605,542.159943 1197.26608,315.807565 1197.26608,315.807565 C1197.26608,315.807565 1078.80549,459.187248 914.475373,533.500573 C878.891196,549.594484 841.648956,571.208141 805.364113,597.352055 C852.041268,704.16342 874.590929,819.398816 860.663197,932.537565 C863.417722,926.894802 866.284567,921.177158 869.060485,915.422074 C984.943061,680.993323 996.036039,685.133133 899.782793,927.082002 C818.446767,1131.62817 761.826581,1365.93391 782.049604,1362.928 C835.326921,1355.04417 917.224549,1332.56405 1019.23288,1271.93777 C1205.60454,1161.12565 1237.23611,880.233692 1192.38282,711.180772 L1192.38282,711.180772 Z" id="dcs1" fill="#A289CC"></path>
                        </g>
                    </g>
                </g>
            </g>
        </g>
    </g>
</svg>