<?xml version="1.0" encoding="UTF-8" standalone="no"?>
<svg width="2140px" height="1600px" viewBox="0 0 2140 1600" version="1.1" xmlns="http://www.w3.org/2000/svg" xmlns:xlink="http://www.w3.org/1999/xlink" xmlns:sketch="http://www.bohemiancoding.com/sketch/ns">
    <!-- Generator: Sketch 3.3.2 (12043) - http://www.bohemiancoding.com/sketch -->
    <title>Slice 1</title>
    <desc>Created with Sketch.</desc>
    <defs>
        <linearGradient x1="0%" y1="0%" x2="100%" y2="0%" id="linearGradient-1">
            <stop stop-color="#564C65" offset="0%"></stop>
            <stop stop-color="#241A33" offset="100%"></stop>
        </linearGradient>
    </defs>
    <g id="Page-1" stroke="none" stroke-width="1" fill="none" fill-rule="evenodd" sketch:type="MSPage">
        <g id="1_Primary_logo_on_transparent" sketch:type="MSLayerGroup" transform="translate(125.000000, 365.000000)">
            <g id="Group" transform="translate(0.790698, 0.186047)">
                <g transform="translate(0.153561, 0.630653)">
                    <g transform="translate(0.149878, 1069.907511)" id="&quot;Диагностика-Коми&quot;" font-size="180" font-family="Souvienne" fill="url(#linearGradient-1)" sketch:type="MSTextLayer" font-weight="bold">
                        <text>
                            <tspan x="0" y="136" fill="#000000">"Диагностика-Коми"</tspan>
                        </text>
                    </g>
                    <g transform="translate(496.380631, 0.588939)" sketch:type="MSShapeGroup">
                        <g>
                            <path d="M357.912979,260.026069 C224.198287,156.723998 147.287436,0.418127428 147.287436,0.418127428 C147.287436,0.418127428 143.69236,217.491851 66.1789138,361.840098 C-11.281242,506.159649 -43.2146995,769.018327 102.674879,910.296206 C182.492126,987.64978 252.307109,1025.82645 299.170175,1044.5766 C316.920094,1051.66427 316.014152,825.883657 286.146735,621.878465 C250.749379,380.557449 183.545643,153.887291 183.545643,153.887291 C183.545643,153.887291 261.735472,379.192386 316.649541,617.910354 C362.86492,819.005051 386.144779,1041.07171 395.831398,1031.54496 C437.139929,990.93741 506.67206,908.808164 556.958033,778.135144 C632.897352,580.639622 491.603076,363.373232 357.912979,260.026069 L357.912979,260.026069 Z" id="kcs" fill="#3D334C"></path>
                            <path d="M913.870786,545.065997 C879.453159,415.52438 917.613436,242.04249 917.613436,242.04249 C917.613436,242.04249 826.822394,351.932118 700.875854,408.887632 C673.603287,421.222391 645.059941,437.787616 617.250368,457.824938 C653.024859,539.68773 670.307459,628.006901 659.632912,714.719151 C661.744046,710.394402 663.941264,706.012262 666.068795,701.601428 C754.88398,521.929612 763.385904,525.102462 689.615108,710.537877 C627.277228,867.306967 583.88216,1046.8845 599.381569,1044.5807 C640.214582,1038.53835 702.982888,1021.30904 781.164519,974.843603 C924.004227,889.914544 948.247419,674.632209 913.870786,545.065997 L913.870786,545.065997 Z" id="dcs1" fill="#A289CC"></path>
                        </g>
                    </g>
                </g>
            </g>
        </g>
    </g>
</svg>